<?xml version="1.0" encoding="iso-8859-1"?>
<!-- Uploaded to: SVG Repo, www.svgrepo.com, Generator: SVG Repo Mixer Tools -->
<svg fill="#000000" height="800px" width="800px" version="1.1" id="Capa_1" xmlns="http://www.w3.org/2000/svg" xmlns:xlink="http://www.w3.org/1999/xlink" 
	 viewBox="0 0 511 511" xml:space="preserve">
<path d="M399.5,472h-8.894l-15.189-281h0.083c12.958,0,23.5-10.542,23.5-23.5S388.458,144,375.5,144H351V39.5
	C351,17.72,333.28,0,311.5,0h-112C177.72,0,160,17.72,160,39.5V144h-24.5c-12.958,0-23.5,10.542-23.5,23.5s10.542,23.5,23.5,23.5
	h0.083l-15.189,281H111.5c-4.142,0-7.5,3.358-7.5,7.5v8c0,12.958,10.542,23.5,23.5,23.5s23.5-10.542,23.5-23.5V487h209v0.5
	c0,12.958,10.542,23.5,23.5,23.5s23.5-10.542,23.5-23.5v-8C407,475.358,403.642,472,399.5,472z M363.908,256H359v-8.5
	c0-7.023-3.101-13.332-8-17.642V191h9.394L363.908,256z M315.25,288l-10.95-14.6c-4.414-5.886-11.442-9.4-18.8-9.4h-60
	c-7.357,0-14.386,3.514-18.8,9.4L195.75,288H175.5c-4.687,0-8.5-3.813-8.5-8.5v-32c0-4.687,3.813-8.5,8.5-8.5h160
	c4.687,0,8.5,3.813,8.5,8.5v32c0,4.687-3.813,8.5-8.5,8.5H315.25z M296.5,288h-82l4.2-5.6c1.597-2.129,4.139-3.4,6.8-3.4h60
	c2.661,0,5.203,1.271,6.8,3.4L296.5,288z M336,191v33h-0.5h-160H175v-33H336z M336,144h-25V73.433
	c0-18.58,6.766-36.119,19.133-49.814C333.787,27.899,336,33.444,336,39.5V144z M311.5,15c1.956,0,3.856,0.237,5.681,0.672
	C303.484,31.8,296,52.036,296,73.433V144h-81V73.433c0-21.395-7.483-41.628-21.181-57.76C195.643,15.237,197.544,15,199.5,15H311.5z
	 M175,39.5c0-6.056,2.213-11.602,5.867-15.882C193.232,37.309,200,54.85,200,73.433V144h-25V39.5z M127,167.5
	c0-4.687,3.813-8.5,8.5-8.5h240c4.687,0,8.5,3.813,8.5,8.5s-3.813,8.5-8.5,8.5h-240C130.813,176,127,172.187,127,167.5z M160,191
	v38.858c-4.899,4.31-8,10.619-8,17.642v8.5h-4.908l3.513-65H160z M146.281,271H152v8.5c0,12.958,10.542,23.5,23.5,23.5h135.997
	c0.003,0,0.006,0,0.009,0c0.002,0,0.004,0,0.006,0H335.5c12.958,0,23.5-10.542,23.5-23.5V271h5.719l10.865,201H367.5h-224h-8.083
	L146.281,271z M136,487.5c0,4.687-3.813,8.5-8.5,8.5s-8.5-3.813-8.5-8.5V487h17V487.5z M392,487.5c0,4.687-3.813,8.5-8.5,8.5
	s-8.5-3.813-8.5-8.5V487h17V487.5z"/>
</svg>